<mxfile host="app.diagrams.net" modified="2024-06-01T14:11:02.793Z" agent="Mozilla/5.0 (Windows NT 10.0; Win64; x64) AppleWebKit/537.36 (KHTML, like Gecko) Chrome/125.0.0.0 Safari/537.36" etag="YA4PwDJDDwfZ469PyPbV" version="24.4.13" type="device">
  <diagram name="Page-1" id="By_XKrjmaqbHKeHy71JY">
    <mxGraphModel dx="1290" dy="557" grid="1" gridSize="10" guides="1" tooltips="1" connect="1" arrows="1" fold="1" page="1" pageScale="1" pageWidth="1100" pageHeight="850" math="0" shadow="0">
      <root>
        <mxCell id="0" />
        <mxCell id="1" parent="0" />
        <mxCell id="GURvenvLAb7qF1PrcJj2-1" value="" style="rounded=0;whiteSpace=wrap;html=1;" vertex="1" parent="1">
          <mxGeometry x="370" y="120" width="390" height="730" as="geometry" />
        </mxCell>
        <mxCell id="GURvenvLAb7qF1PrcJj2-2" value="User" style="shape=umlActor;verticalLabelPosition=bottom;verticalAlign=top;html=1;outlineConnect=0;" vertex="1" parent="1">
          <mxGeometry x="250" y="330" width="30" height="60" as="geometry" />
        </mxCell>
        <mxCell id="GURvenvLAb7qF1PrcJj2-3" value="Select a connected database" style="ellipse;whiteSpace=wrap;html=1;" vertex="1" parent="1">
          <mxGeometry x="510" y="170" width="110" height="70" as="geometry" />
        </mxCell>
        <mxCell id="GURvenvLAb7qF1PrcJj2-4" value="View Expected query" style="ellipse;whiteSpace=wrap;html=1;" vertex="1" parent="1">
          <mxGeometry x="510" y="470" width="110" height="70" as="geometry" />
        </mxCell>
        <mxCell id="GURvenvLAb7qF1PrcJj2-5" value="Create a query" style="ellipse;whiteSpace=wrap;html=1;" vertex="1" parent="1">
          <mxGeometry x="440" y="280" width="110" height="70" as="geometry" />
        </mxCell>
        <mxCell id="GURvenvLAb7qF1PrcJj2-6" value="" style="endArrow=none;html=1;rounded=0;entryX=0;entryY=0.5;entryDx=0;entryDy=0;exitX=1;exitY=0.3333333333333333;exitDx=0;exitDy=0;exitPerimeter=0;" edge="1" parent="1" source="GURvenvLAb7qF1PrcJj2-2" target="GURvenvLAb7qF1PrcJj2-3">
          <mxGeometry width="50" height="50" relative="1" as="geometry">
            <mxPoint x="280" y="280" as="sourcePoint" />
            <mxPoint x="570" y="380" as="targetPoint" />
          </mxGeometry>
        </mxCell>
        <mxCell id="GURvenvLAb7qF1PrcJj2-7" value="" style="endArrow=none;html=1;rounded=0;entryX=0;entryY=0.5;entryDx=0;entryDy=0;exitX=1;exitY=0.3333333333333333;exitDx=0;exitDy=0;exitPerimeter=0;" edge="1" parent="1" source="GURvenvLAb7qF1PrcJj2-2" target="GURvenvLAb7qF1PrcJj2-5">
          <mxGeometry width="50" height="50" relative="1" as="geometry">
            <mxPoint x="280" y="280" as="sourcePoint" />
            <mxPoint x="440" y="245" as="targetPoint" />
          </mxGeometry>
        </mxCell>
        <mxCell id="GURvenvLAb7qF1PrcJj2-8" value="" style="endArrow=none;html=1;rounded=0;exitX=1;exitY=0.3333333333333333;exitDx=0;exitDy=0;exitPerimeter=0;entryX=0;entryY=0.5;entryDx=0;entryDy=0;" edge="1" parent="1" source="GURvenvLAb7qF1PrcJj2-2" target="GURvenvLAb7qF1PrcJj2-4">
          <mxGeometry width="50" height="50" relative="1" as="geometry">
            <mxPoint x="520" y="540" as="sourcePoint" />
            <mxPoint x="570" y="490" as="targetPoint" />
          </mxGeometry>
        </mxCell>
        <mxCell id="GURvenvLAb7qF1PrcJj2-9" value="Query Builder" style="text;html=1;align=center;verticalAlign=middle;whiteSpace=wrap;rounded=0;" vertex="1" parent="1">
          <mxGeometry x="480" y="130" width="170" height="30" as="geometry" />
        </mxCell>
        <mxCell id="GURvenvLAb7qF1PrcJj2-10" value="View summary of results" style="ellipse;whiteSpace=wrap;html=1;" vertex="1" parent="1">
          <mxGeometry x="510" y="570" width="110" height="70" as="geometry" />
        </mxCell>
        <mxCell id="GURvenvLAb7qF1PrcJj2-11" value="Toggle between creator views" style="ellipse;whiteSpace=wrap;html=1;" vertex="1" parent="1">
          <mxGeometry x="510" y="380" width="110" height="70" as="geometry" />
        </mxCell>
        <mxCell id="GURvenvLAb7qF1PrcJj2-12" value="" style="endArrow=none;html=1;rounded=0;exitX=1;exitY=0.3333333333333333;exitDx=0;exitDy=0;exitPerimeter=0;entryX=0;entryY=0.5;entryDx=0;entryDy=0;" edge="1" parent="1" source="GURvenvLAb7qF1PrcJj2-2" target="GURvenvLAb7qF1PrcJj2-11">
          <mxGeometry width="50" height="50" relative="1" as="geometry">
            <mxPoint x="290" y="360" as="sourcePoint" />
            <mxPoint x="490" y="495" as="targetPoint" />
          </mxGeometry>
        </mxCell>
        <mxCell id="GURvenvLAb7qF1PrcJj2-13" value="" style="endArrow=none;html=1;rounded=0;exitX=1;exitY=0.3333333333333333;exitDx=0;exitDy=0;exitPerimeter=0;entryX=0;entryY=0.5;entryDx=0;entryDy=0;" edge="1" parent="1" source="GURvenvLAb7qF1PrcJj2-2" target="GURvenvLAb7qF1PrcJj2-10">
          <mxGeometry width="50" height="50" relative="1" as="geometry">
            <mxPoint x="300" y="370" as="sourcePoint" />
            <mxPoint x="500" y="505" as="targetPoint" />
          </mxGeometry>
        </mxCell>
        <mxCell id="GURvenvLAb7qF1PrcJj2-16" value="Form based creation" style="ellipse;whiteSpace=wrap;html=1;" vertex="1" parent="1">
          <mxGeometry x="610" y="320" width="110" height="70" as="geometry" />
        </mxCell>
        <mxCell id="GURvenvLAb7qF1PrcJj2-17" value="Drag and drop creation" style="ellipse;whiteSpace=wrap;html=1;" vertex="1" parent="1">
          <mxGeometry x="610" y="240" width="110" height="70" as="geometry" />
        </mxCell>
        <mxCell id="GURvenvLAb7qF1PrcJj2-21" value="" style="endArrow=classic;html=1;rounded=0;entryX=0;entryY=0.5;entryDx=0;entryDy=0;exitX=1;exitY=0;exitDx=0;exitDy=0;dashed=1;" edge="1" parent="1" source="GURvenvLAb7qF1PrcJj2-5" target="GURvenvLAb7qF1PrcJj2-17">
          <mxGeometry width="50" height="50" relative="1" as="geometry">
            <mxPoint x="520" y="400" as="sourcePoint" />
            <mxPoint x="570" y="350" as="targetPoint" />
          </mxGeometry>
        </mxCell>
        <mxCell id="GURvenvLAb7qF1PrcJj2-22" value="" style="endArrow=classic;html=1;rounded=0;entryX=0;entryY=0.5;entryDx=0;entryDy=0;exitX=1;exitY=1;exitDx=0;exitDy=0;dashed=1;" edge="1" parent="1" source="GURvenvLAb7qF1PrcJj2-5" target="GURvenvLAb7qF1PrcJj2-16">
          <mxGeometry width="50" height="50" relative="1" as="geometry">
            <mxPoint x="544" y="300" as="sourcePoint" />
            <mxPoint x="620" y="285" as="targetPoint" />
          </mxGeometry>
        </mxCell>
        <mxCell id="GURvenvLAb7qF1PrcJj2-23" value="&amp;lt;&amp;lt;include&amp;gt;&amp;gt;" style="text;html=1;align=center;verticalAlign=middle;whiteSpace=wrap;rounded=0;" vertex="1" parent="1">
          <mxGeometry x="550" y="320" width="60" height="30" as="geometry" />
        </mxCell>
        <mxCell id="GURvenvLAb7qF1PrcJj2-24" value="&amp;lt;&amp;lt;include&amp;gt;&amp;gt;" style="text;html=1;align=center;verticalAlign=middle;whiteSpace=wrap;rounded=0;" vertex="1" parent="1">
          <mxGeometry x="535" y="260" width="60" height="30" as="geometry" />
        </mxCell>
        <mxCell id="GURvenvLAb7qF1PrcJj2-26" value="Save Queries" style="ellipse;whiteSpace=wrap;html=1;" vertex="1" parent="1">
          <mxGeometry x="510" y="660" width="110" height="70" as="geometry" />
        </mxCell>
        <mxCell id="GURvenvLAb7qF1PrcJj2-27" value="Edit Saved Queries" style="ellipse;whiteSpace=wrap;html=1;" vertex="1" parent="1">
          <mxGeometry x="510" y="760" width="110" height="70" as="geometry" />
        </mxCell>
        <mxCell id="GURvenvLAb7qF1PrcJj2-28" value="" style="endArrow=none;html=1;rounded=0;exitX=1;exitY=0.3333333333333333;exitDx=0;exitDy=0;exitPerimeter=0;entryX=0;entryY=0.5;entryDx=0;entryDy=0;" edge="1" parent="1" source="GURvenvLAb7qF1PrcJj2-2" target="GURvenvLAb7qF1PrcJj2-26">
          <mxGeometry width="50" height="50" relative="1" as="geometry">
            <mxPoint x="290" y="360" as="sourcePoint" />
            <mxPoint x="520" y="615" as="targetPoint" />
          </mxGeometry>
        </mxCell>
        <mxCell id="GURvenvLAb7qF1PrcJj2-29" value="" style="endArrow=none;html=1;rounded=0;exitX=1;exitY=0.3333333333333333;exitDx=0;exitDy=0;exitPerimeter=0;entryX=0;entryY=0.5;entryDx=0;entryDy=0;" edge="1" parent="1" source="GURvenvLAb7qF1PrcJj2-2" target="GURvenvLAb7qF1PrcJj2-27">
          <mxGeometry width="50" height="50" relative="1" as="geometry">
            <mxPoint x="290" y="360" as="sourcePoint" />
            <mxPoint x="520" y="705" as="targetPoint" />
          </mxGeometry>
        </mxCell>
      </root>
    </mxGraphModel>
  </diagram>
</mxfile>
